<svg xmlns="http://www.w3.org/2000/svg" viewBox="0 0 1200 750" width="1200" height="750">
<defs>
<linearGradient id="bg" x1="0" y1="0" x2="1" y2="1"><stop offset="0" stop-color="#7a1f3a"/><stop offset="1" stop-color="#e0607d"/></linearGradient>
<radialGradient id="glow" cx=".8" cy=".15" r=".7"><stop offset="0" stop-color="#ffc2d0" stop-opacity=".55"/><stop offset="1" stop-color="#ffc2d0" stop-opacity="0"/></radialGradient>
<filter id="sh" x="-20%" y="-20%" width="140%" height="150%"><feDropShadow dx="0" dy="18" stdDeviation="20" flood-color="#0b0a33" flood-opacity=".35"/></filter>
<pattern id="dots" width="40" height="40" patternUnits="userSpaceOnUse"><circle cx="4" cy="4" r="2" fill="#fff" fill-opacity=".14"/></pattern>
</defs>
<rect width="1200" height="750" fill="url(#bg)"/><rect width="1200" height="750" fill="url(#dots)"/><rect width="1200" height="750" fill="url(#glow)"/>
<circle cx="1080" cy="120" r="220" fill="#fff" fill-opacity=".06"/><circle cx="90" cy="690" r="180" fill="#fff" fill-opacity=".06"/>
<rect x="150" y="190" width="520" height="68" rx="20" fill="#fff" filter="url(#sh)"/><circle cx="196" cy="224" r="20" fill="#e0607d"/><rect x="236" y="210" width="300" height="14" rx="7" fill="#dfe3ff"/><rect x="236" y="232" width="180" height="10" rx="5" fill="#eceeff"/><rect x="150" y="278" width="520" height="68" rx="20" fill="#fff" filter="url(#sh)"/><circle cx="196" cy="312" r="20" fill="#e0607d"/><rect x="236" y="298" width="270" height="14" rx="7" fill="#dfe3ff"/><rect x="236" y="320" width="170" height="10" rx="5" fill="#eceeff"/><rect x="150" y="366" width="520" height="68" rx="20" fill="#fff" filter="url(#sh)"/><circle cx="196" cy="400" r="20" fill="#e0607d"/><rect x="236" y="386" width="240" height="14" rx="7" fill="#dfe3ff"/><rect x="236" y="408" width="160" height="10" rx="5" fill="#eceeff"/><rect x="150" y="454" width="520" height="68" rx="20" fill="#fff" filter="url(#sh)"/><circle cx="196" cy="488" r="20" fill="#e0607d"/><rect x="236" y="474" width="210" height="14" rx="7" fill="#dfe3ff"/><rect x="236" y="496" width="150" height="10" rx="5" fill="#eceeff"/><rect x="150" y="542" width="520" height="68" rx="20" fill="#fff" filter="url(#sh)"/><circle cx="196" cy="576" r="20" fill="#e0607d"/><rect x="236" y="562" width="180" height="14" rx="7" fill="#dfe3ff"/><rect x="236" y="584" width="140" height="10" rx="5" fill="#eceeff"/><g filter="url(#sh)"><path d="M880 210 L1030 480 H730 Z" fill="#ffd66b" stroke="#ffd66b" stroke-width="30" stroke-linejoin="round"/></g><rect x="868" y="300" width="24" height="96" rx="12" fill="#6b4600"/><circle cx="880" cy="430" r="14" fill="#6b4600"/><text x="880" y="590" text-anchor="middle" font-family="Helvetica, Arial, sans-serif" font-weight="800" font-size="120" fill="#fff" fill-opacity=".95">429</text></svg>