<svg xmlns="http://www.w3.org/2000/svg" viewBox="0 0 1200 750" width="1200" height="750">
<defs>
<linearGradient id="bg" x1="0" y1="0" x2="1" y2="1"><stop offset="0" stop-color="#7a1f3a"/><stop offset="1" stop-color="#e0607d"/></linearGradient>
<radialGradient id="glow" cx=".8" cy=".15" r=".7"><stop offset="0" stop-color="#ffc2d0" stop-opacity=".55"/><stop offset="1" stop-color="#ffc2d0" stop-opacity="0"/></radialGradient>
<filter id="sh" x="-20%" y="-20%" width="140%" height="150%"><feDropShadow dx="0" dy="18" stdDeviation="20" flood-color="#0b0a33" flood-opacity=".35"/></filter>
<pattern id="dots" width="40" height="40" patternUnits="userSpaceOnUse"><circle cx="4" cy="4" r="2" fill="#fff" fill-opacity=".14"/></pattern>
</defs>
<rect width="1200" height="750" fill="url(#bg)"/><rect width="1200" height="750" fill="url(#dots)"/><rect width="1200" height="750" fill="url(#glow)"/>
<circle cx="1080" cy="120" r="220" fill="#fff" fill-opacity=".06"/><circle cx="90" cy="690" r="180" fill="#fff" fill-opacity=".06"/>
<rect x="140" y="150" width="430" height="470" rx="30" fill="#fff" filter="url(#sh)"/><rect x="185" y="210" width="60" height="60" rx="14" fill="#ffc2d0"/><rect x="265" y="216" width="200" height="16" rx="8" fill="#dfe3ff"/><rect x="265" y="246" width="120" height="14" rx="7" fill="#eceeff"/><circle cx="520" cy="240" r="16" fill="#3fd08a"/><path d="M512 240 l6 6 12 -12" fill="none" stroke="#fff" stroke-width="5" stroke-linecap="round" stroke-linejoin="round"/><rect x="185" y="310" width="60" height="60" rx="14" fill="#ffc2d0"/><rect x="265" y="316" width="200" height="16" rx="8" fill="#dfe3ff"/><rect x="265" y="346" width="120" height="14" rx="7" fill="#eceeff"/><circle cx="520" cy="340" r="16" fill="#3fd08a"/><path d="M512 340 l6 6 12 -12" fill="none" stroke="#fff" stroke-width="5" stroke-linecap="round" stroke-linejoin="round"/><rect x="185" y="410" width="60" height="60" rx="14" fill="#ffc2d0"/><rect x="265" y="416" width="200" height="16" rx="8" fill="#dfe3ff"/><rect x="265" y="446" width="120" height="14" rx="7" fill="#eceeff"/><circle cx="520" cy="440" r="16" fill="#3fd08a"/><path d="M512 440 l6 6 12 -12" fill="none" stroke="#fff" stroke-width="5" stroke-linecap="round" stroke-linejoin="round"/><rect x="185" y="510" width="60" height="60" rx="14" fill="#ffc2d0"/><rect x="265" y="516" width="200" height="16" rx="8" fill="#dfe3ff"/><rect x="265" y="546" width="120" height="14" rx="7" fill="#eceeff"/><circle cx="520" cy="540" r="16" fill="#3fd08a"/><path d="M512 540 l6 6 12 -12" fill="none" stroke="#fff" stroke-width="5" stroke-linecap="round" stroke-linejoin="round"/><g filter="url(#sh)"><path d="M640 250 h70 l50 190 h230 l40 -140 h-300" fill="none" stroke="#fff" stroke-width="26" stroke-linecap="round" stroke-linejoin="round"/><circle cx="800" cy="500" r="30" fill="#fff"/><circle cx="960" cy="500" r="30" fill="#fff"/></g><g filter="url(#sh)"><circle cx="860" cy="270" r="70" fill="#ffd66b"/><circle cx="860" cy="270" r="57.4" fill="none" stroke="#e0a520" stroke-width="4.9"/><path d="M840.4 296.6 V243.4 L879.6 296.6 V243.4" fill="none" stroke="#b97d0b" stroke-width="7.7" stroke-linejoin="round" stroke-linecap="round"/></g></svg>